<svg width="306" height="294" viewBox="0 0 306 294" fill="none" xmlns="http://www.w3.org/2000/svg">
<g clip-path="url(#clip0_44_126)">
<path d="M257.528 69.683H255.921V25.5455C255.921 18.7704 253.232 12.2728 248.446 7.48209C243.661 2.69139 237.17 3.33227e-09 230.402 3.33227e-09H136.984C133.633 -5.41791e-05 130.314 0.660645 127.218 1.94437C124.122 3.2281 121.309 5.10972 118.939 7.4818C116.569 9.85388 114.689 12.67 113.407 15.7693C112.124 18.8686 111.464 22.1904 111.464 25.5451V267.687C111.464 274.462 114.153 280.96 118.939 285.75C123.724 290.541 130.215 293.233 136.983 293.233H230.4C237.169 293.233 243.659 290.541 248.445 285.75C253.231 280.96 255.92 274.462 255.92 267.687V101.101H257.527L257.528 69.683Z" fill="#3F3D56"/>
<path d="M250.686 23.8344V269.397C250.686 274.534 248.647 279.46 245.019 283.093C241.391 286.726 236.47 288.767 231.338 288.769H136.004C130.871 288.77 125.947 286.729 122.316 283.097C118.685 279.464 116.645 274.536 116.643 269.397V23.8344C116.645 18.6958 118.685 13.7683 122.316 10.1355C125.946 6.50274 130.87 4.4623 136.003 4.46295H147.568C147 5.8608 146.784 7.37688 146.938 8.87792C147.093 10.379 147.614 11.819 148.454 13.0715C149.295 14.324 150.43 15.3506 151.76 16.061C153.09 16.7715 154.574 17.144 156.082 17.1459H210.433C211.941 17.144 213.425 16.7715 214.755 16.061C216.084 15.3506 217.22 14.324 218.06 13.0715C218.901 11.819 219.422 10.379 219.576 8.87792C219.731 7.37688 219.515 5.8608 218.947 4.46295H231.335C236.466 4.46383 241.387 6.50452 245.016 10.1364C248.645 13.7682 250.684 18.694 250.686 23.8307V23.8344Z" fill="white"/>
<path d="M183.647 122.413C205.629 122.413 223.448 104.575 223.448 82.571C223.448 60.5671 205.629 42.7294 183.647 42.7294C161.666 42.7294 143.846 60.5671 143.846 82.571C143.846 104.575 161.666 122.413 183.647 122.413Z" fill="#8E8E8E"/>
<path d="M227.055 165.282H142.339C141.924 165.281 141.525 165.116 141.231 164.821C140.937 164.527 140.771 164.128 140.771 163.711V142.676C140.771 142.26 140.937 141.86 141.231 141.566C141.525 141.272 141.924 141.106 142.339 141.106H227.055C227.471 141.106 227.87 141.272 228.164 141.566C228.458 141.86 228.623 142.26 228.624 142.676V163.712C228.623 164.128 228.458 164.527 228.164 164.821C227.87 165.116 227.471 165.281 227.055 165.282V165.282ZM142.339 141.733C142.09 141.734 141.851 141.833 141.674 142.01C141.498 142.186 141.398 142.426 141.398 142.676V163.712C141.398 163.962 141.498 164.201 141.674 164.378C141.851 164.554 142.09 164.654 142.339 164.654H227.055C227.305 164.654 227.544 164.554 227.72 164.378C227.897 164.201 227.996 163.962 227.996 163.712V142.676C227.996 142.426 227.897 142.186 227.72 142.01C227.544 141.833 227.305 141.734 227.055 141.733H142.339Z" fill="#E6E6E6"/>
<path d="M168.538 148.681C168.247 148.681 167.968 148.797 167.762 149.003C167.556 149.209 167.44 149.489 167.44 149.78C167.44 150.072 167.556 150.352 167.762 150.558C167.968 150.764 168.247 150.88 168.538 150.88H220.309C220.6 150.891 220.883 150.786 221.097 150.588C221.311 150.39 221.437 150.115 221.448 149.823C221.46 149.532 221.355 149.248 221.157 149.034C220.959 148.82 220.684 148.693 220.393 148.682C220.377 148.682 220.361 148.681 220.345 148.681H168.538L168.538 148.681Z" fill="#E6E6E6"/>
<path d="M168.538 155.276C168.247 155.276 167.968 155.392 167.762 155.598C167.556 155.804 167.44 156.084 167.44 156.375C167.44 156.667 167.556 156.946 167.762 157.153C167.968 157.359 168.247 157.475 168.538 157.475H220.309C220.6 157.486 220.883 157.381 221.097 157.183C221.311 156.984 221.437 156.709 221.448 156.418C221.46 156.127 221.355 155.843 221.157 155.629C220.959 155.415 220.684 155.288 220.393 155.277C220.377 155.276 220.361 155.276 220.345 155.276H168.538L168.538 155.276Z" fill="#E6E6E6"/>
<path d="M227.055 200.343H142.339C141.924 200.343 141.525 200.177 141.231 199.883C140.937 199.589 140.771 199.189 140.771 198.773V177.738C140.771 177.321 140.937 176.922 141.231 176.628C141.525 176.334 141.924 176.168 142.339 176.167H227.055C227.471 176.168 227.87 176.334 228.164 176.628C228.458 176.922 228.623 177.321 228.624 177.738V198.774C228.623 199.19 228.458 199.589 228.164 199.883C227.869 200.177 227.471 200.343 227.055 200.343V200.343ZM142.339 176.795C142.09 176.796 141.851 176.895 141.674 177.072C141.498 177.248 141.398 177.488 141.398 177.738V198.774C141.398 199.023 141.498 199.263 141.674 199.44C141.851 199.616 142.09 199.716 142.339 199.716H227.055C227.305 199.716 227.544 199.616 227.72 199.44C227.897 199.263 227.996 199.023 227.996 198.774V177.738C227.996 177.488 227.897 177.248 227.72 177.072C227.544 176.895 227.305 176.796 227.055 176.795H142.339Z" fill="#E6E6E6"/>
<path d="M168.538 183.857C168.247 183.857 167.968 183.973 167.762 184.179C167.556 184.385 167.44 184.665 167.44 184.956C167.44 185.248 167.556 185.527 167.762 185.734C167.968 185.94 168.247 186.056 168.538 186.056H220.309C220.596 186.054 220.871 185.94 221.075 185.738C221.279 185.535 221.396 185.261 221.401 184.974C221.405 184.687 221.297 184.409 221.1 184.2C220.903 183.991 220.631 183.868 220.345 183.857H168.538V183.857Z" fill="#E6E6E6"/>
<path d="M168.538 190.453C168.247 190.453 167.968 190.569 167.762 190.775C167.556 190.981 167.44 191.261 167.44 191.553C167.44 191.844 167.556 192.124 167.762 192.33C167.968 192.536 168.247 192.652 168.538 192.652H220.309C220.596 192.65 220.871 192.536 221.075 192.334C221.279 192.132 221.396 191.858 221.401 191.57C221.405 191.283 221.297 191.005 221.1 190.796C220.903 190.588 220.631 190.465 220.345 190.454H168.538V190.453Z" fill="#E6E6E6"/>
<path d="M227.055 235.52H142.339C141.924 235.52 141.525 235.354 141.231 235.06C140.937 234.765 140.771 234.366 140.771 233.95V212.914C140.771 212.498 140.937 212.099 141.231 211.804C141.525 211.51 141.924 211.344 142.339 211.344H227.055C227.471 211.344 227.87 211.51 228.164 211.804C228.458 212.099 228.623 212.498 228.624 212.914V233.95C228.623 234.366 228.458 234.766 228.164 235.06C227.87 235.354 227.471 235.52 227.055 235.52V235.52ZM142.339 211.972C142.09 211.972 141.851 212.071 141.674 212.248C141.498 212.425 141.398 212.664 141.398 212.914V233.95C141.398 234.2 141.498 234.44 141.674 234.616C141.851 234.793 142.09 234.892 142.339 234.892H227.055C227.305 234.892 227.544 234.793 227.72 234.616C227.897 234.44 227.996 234.2 227.996 233.95V212.914C227.996 212.664 227.897 212.425 227.72 212.248C227.544 212.071 227.305 211.972 227.055 211.972H142.339Z" fill="#E6E6E6"/>
<path d="M168.538 219.035C168.247 219.035 167.968 219.15 167.762 219.357C167.556 219.563 167.44 219.842 167.44 220.134C167.44 220.425 167.556 220.705 167.762 220.911C167.968 221.117 168.247 221.233 168.538 221.233H220.309C220.453 221.239 220.597 221.216 220.732 221.166C220.867 221.116 220.991 221.039 221.097 220.941C221.203 220.843 221.288 220.725 221.349 220.594C221.409 220.463 221.443 220.321 221.448 220.177C221.454 220.032 221.431 219.888 221.381 219.753C221.331 219.617 221.255 219.493 221.157 219.387C221.059 219.281 220.941 219.196 220.81 219.135C220.679 219.075 220.537 219.041 220.393 219.036C220.377 219.035 220.361 219.035 220.345 219.035H168.538L168.538 219.035Z" fill="#E6E6E6"/>
<path d="M168.538 225.631C168.247 225.631 167.968 225.746 167.762 225.953C167.556 226.159 167.44 226.438 167.44 226.73C167.44 227.022 167.556 227.301 167.762 227.507C167.968 227.714 168.247 227.829 168.538 227.829H220.309C220.453 227.835 220.597 227.812 220.732 227.762C220.867 227.712 220.991 227.635 221.097 227.537C221.203 227.439 221.288 227.321 221.349 227.19C221.409 227.059 221.443 226.917 221.448 226.773C221.454 226.628 221.431 226.484 221.381 226.349C221.331 226.214 221.255 226.089 221.157 225.983C221.059 225.877 220.941 225.792 220.81 225.732C220.679 225.671 220.537 225.637 220.393 225.632C220.377 225.631 220.361 225.631 220.345 225.631H168.538L168.538 225.631Z" fill="#E6E6E6"/>
<path d="M305.201 294H0.798775C0.357344 294 0 293.807 0 293.569C0 293.331 0.357756 293.138 0.798775 293.138H305.201C305.642 293.138 306 293.331 306 293.569C306 293.807 305.643 294 305.201 294Z" fill="#E6E6E6"/>
<path d="M292.31 277.181C291.009 277.638 289.613 277.753 288.255 277.514C286.898 277.274 285.624 276.689 284.558 275.814C281.843 273.533 280.992 269.775 280.3 266.295L278.251 256.003L282.54 258.96C285.624 261.085 288.778 263.279 290.914 266.359C293.049 269.438 293.981 273.641 292.266 276.973" fill="#E6E6E6"/>
<path d="M291.647 290.358C292.187 286.421 292.742 282.433 292.363 278.455C292.027 274.921 290.95 271.47 288.757 268.64C287.594 267.141 286.177 265.856 284.573 264.844C284.154 264.58 283.769 265.243 284.186 265.507C286.962 267.263 289.11 269.858 290.319 272.915C291.654 276.315 291.869 280.022 291.638 283.633C291.499 285.817 291.204 287.987 290.907 290.154C290.883 290.252 290.898 290.355 290.948 290.443C290.998 290.53 291.079 290.596 291.175 290.626C291.273 290.652 291.377 290.639 291.465 290.589C291.554 290.539 291.619 290.456 291.646 290.358H291.647Z" fill="#F2F2F2"/>
<path d="M287.762 284.041C287.204 284.89 286.437 285.58 285.536 286.046C284.634 286.512 283.627 286.737 282.613 286.701C280.007 286.577 277.834 284.756 275.879 283.029L270.094 277.915L273.922 277.732C276.676 277.6 279.5 277.477 282.125 278.327C284.749 279.177 287.166 281.222 287.645 283.938" fill="#E6E6E6"/>
<path d="M293.173 292.621C290.576 288.018 287.56 282.902 282.174 281.267C280.677 280.814 279.106 280.652 277.548 280.789C277.057 280.83 277.18 281.589 277.672 281.547C280.284 281.33 282.891 282.02 285.054 283.502C287.136 284.921 288.757 286.892 290.129 288.984C290.969 290.263 291.722 291.6 292.474 292.933C292.713 293.359 293.416 293.052 293.173 292.621Z" fill="#F2F2F2"/>
<path d="M152.908 159.66C156.547 159.66 159.497 156.707 159.497 153.064C159.497 149.422 156.547 146.469 152.908 146.469C149.269 146.469 146.319 149.422 146.319 153.064C146.319 156.707 149.269 159.66 152.908 159.66Z" fill="#8E8E8E"/>
<path d="M149.754 151.832C149.678 151.832 149.617 152.325 149.617 152.932C149.617 153.538 149.678 154.031 149.754 154.031H156.233C156.309 154.041 156.371 153.557 156.373 152.95C156.415 152.572 156.368 152.19 156.237 151.833H149.754V151.832Z" fill="#E6E6E6"/>
<path d="M152.908 194.851C156.547 194.851 159.497 191.898 159.497 188.255C159.497 184.613 156.547 181.66 152.908 181.66C149.269 181.66 146.319 184.613 146.319 188.255C146.319 191.898 149.269 194.851 152.908 194.851Z" fill="#8E8E8E"/>
<path d="M149.754 187.023C149.678 187.023 149.617 187.516 149.617 188.123C149.617 188.73 149.678 189.222 149.754 189.222H156.233C156.309 189.232 156.371 188.748 156.373 188.141C156.415 187.763 156.368 187.381 156.237 187.024H149.754V187.023Z" fill="#E6E6E6"/>
<path d="M152.908 230.028C156.547 230.028 159.497 227.075 159.497 223.432C159.497 219.789 156.547 216.836 152.908 216.836C149.269 216.836 146.319 219.789 146.319 223.432C146.319 227.075 149.269 230.028 152.908 230.028Z" fill="#8E8E8E"/>
<path d="M149.754 222.2C149.678 222.2 149.617 222.692 149.617 223.299C149.617 223.906 149.678 224.399 149.754 224.399H156.233C156.309 224.409 156.371 223.925 156.373 223.318C156.415 222.94 156.368 222.557 156.237 222.2H149.754V222.2Z" fill="#E6E6E6"/>
<path d="M175.05 71.6306L172.718 73.9646L192.245 93.5115L194.576 91.1775L175.05 71.6306Z" fill="white"/>
<path d="M194.576 73.9646L192.245 71.6307L172.718 91.1776L175.05 93.5115L194.576 73.9646Z" fill="white"/>
<path d="M37.2021 188.196C37.7733 187.994 38.2932 187.669 38.7252 187.243C39.1572 186.818 39.4909 186.303 39.7026 185.735C39.9143 185.167 39.999 184.559 39.9506 183.954C39.9023 183.35 39.7221 182.763 39.4227 182.236L49.1355 171.152L41.5535 170.105L33.4925 180.791C32.6408 181.353 32.0247 182.208 31.7609 183.194C31.4971 184.181 31.6039 185.23 32.0612 186.143C32.5184 187.056 33.2943 187.769 34.2418 188.147C35.1893 188.526 36.2426 188.543 37.2021 188.196V188.196Z" fill="#9F616A"/>
<path d="M48.9156 286.426L42.1417 286.425L38.9189 260.27L48.9169 260.27L48.9156 286.426Z" fill="#9F616A"/>
<path d="M50.6432 292.999L28.8005 292.998V292.722C28.8007 290.464 29.6965 288.3 31.2908 286.704C32.8852 285.108 35.0476 284.211 37.3023 284.211H37.3028L50.6436 284.212L50.6432 292.999Z" fill="#2F2E41"/>
<path d="M84.3759 280.751L77.9065 282.761L67.0806 258.739L76.6288 255.772L84.3759 280.751Z" fill="#9F616A"/>
<path d="M87.9733 286.516L67.1129 292.999L67.031 292.735C66.3625 290.579 66.5767 288.246 67.6266 286.249C68.6764 284.251 70.4759 282.753 72.6292 282.084L72.6297 282.083L85.3706 278.124L87.9733 286.516Z" fill="#2F2E41"/>
<path d="M43.7279 165.837L33.6953 177.339L41.5496 178.047L43.7279 165.837Z" fill="#E6E6E6"/>
<path d="M39.8078 180.663C39.8078 180.663 36.323 182.407 35.8873 190.256C35.4516 198.105 37.1943 218.601 37.1943 218.601C37.1943 218.601 35.4521 227.758 37.1943 236.043C38.9365 244.328 35.4521 274.414 37.6299 274.414C39.8078 274.414 51.1334 275.722 51.569 274.414C52.0047 273.105 52.4403 253.483 52.4403 253.483C52.4403 253.483 55.9252 243.454 52.4403 237.351C52.4403 237.351 64.6079 258.619 72.4779 274.851C74.2003 278.403 87.2883 274.415 85.1104 270.49C82.9325 266.566 77.7054 248.688 77.7054 248.688C77.7054 248.688 73.7848 235.606 66.8155 229.938L70.3004 202.031C70.3004 202.031 77.7058 183.28 73.3504 180.664C68.995 178.048 39.8078 180.663 39.8078 180.663Z" fill="#2F2E41"/>
<path d="M52.8756 109.587C59.1305 109.587 64.2011 104.511 64.2011 98.2495C64.2011 91.9882 59.1305 86.9124 52.8756 86.9124C46.6207 86.9124 41.55 91.9882 41.55 98.2495C41.55 104.511 46.6207 109.587 52.8756 109.587Z" fill="#A0616A"/>
<path d="M65.5081 110.459L51.4285 118.744C51.4285 118.744 46.0373 121.783 44.0235 127.028C41.8769 132.619 43.1246 140.49 44.0235 142.29C45.7657 145.779 43.2927 154.499 43.2927 154.499L41.1148 174.557C41.1148 174.557 33.2742 181.97 39.3726 182.842C45.471 183.714 56.3609 182.406 62.895 182.842C69.4291 183.278 76.8341 184.151 74.6562 179.789C72.4783 175.428 69.8647 172.376 72.4783 163.657C74.5235 156.833 74.4349 131.317 74.2997 120.541C74.281 119.061 73.8846 117.611 73.1479 116.328C72.4112 115.045 71.3589 113.972 70.091 113.211L65.5081 110.459Z" fill="#E5E5E5"/>
<path opacity="0.1" d="M59.1937 124.195L60.5003 150.794L47.836 176.466L45.6882 175.648L58.7564 151.665L59.1937 124.195Z" fill="black"/>
<path opacity="0.1" d="M73.5668 156.462V153.409L58.7581 177.828L73.5668 156.462Z" fill="black"/>
<path d="M44.8375 87.747L42.9667 86.9977C42.9667 86.9977 46.8823 82.6833 52.3282 83.0583L50.7962 81.37C50.7962 81.37 54.5407 79.8694 57.9452 83.8084C59.7349 85.8792 61.8052 88.3135 63.0973 91.0551H65.1025L64.2658 92.8998L67.1947 94.7445L64.1883 94.4144C64.4731 96.007 64.3756 97.6444 63.9039 99.1918L63.9864 100.65C63.9864 100.65 60.4998 95.2495 60.4998 94.5003V96.3763C60.4998 96.3763 58.6274 94.688 58.6274 93.5624L57.606 94.8757L57.0953 92.8128L50.7974 94.8757L51.818 93.1866L47.9024 93.7494L49.4344 91.6864C49.4344 91.6864 45.009 94.1248 44.8387 96.1886C44.6685 98.2524 42.456 100.878 42.456 100.878L41.4347 99.002C41.4347 99.002 39.903 90.5609 44.8375 87.747Z" fill="#2F2E41"/>
<path d="M52.165 189.43C52.6912 189.13 53.1452 188.717 53.495 188.222C53.8448 187.726 54.0818 187.16 54.1894 186.564C54.2969 185.967 54.2725 185.353 54.1177 184.767C53.9629 184.181 53.6815 183.635 53.2934 183.169L60.8866 170.536L53.2394 170.853L47.2011 182.801C46.4627 183.506 46.008 184.457 45.9233 185.475C45.8386 186.492 46.1298 187.506 46.7417 188.323C47.3535 189.14 48.2436 189.704 49.2431 189.908C50.2427 190.112 51.2823 189.942 52.165 189.43V189.43Z" fill="#9F616A"/>
<path d="M69.429 116.128L72.6959 115.474C72.6959 115.474 82.4968 122.669 79.4476 137.058C76.3984 151.448 62.895 173.25 62.895 173.25C62.895 173.25 59.8449 177.175 58.9744 178.047C58.1039 178.919 56.3609 178.047 57.2322 179.355C58.1035 180.663 55.9252 181.535 55.9252 181.535C55.9252 181.535 46.3419 181.535 47.2132 178.047C48.0846 174.558 62.895 149.702 62.895 149.702L60.7171 126.591C60.7171 126.591 58.974 115.256 69.429 116.128Z" fill="#E5E5E5"/>
</g>
<defs>
<clipPath id="clip0_44_126">
<rect width="306" height="294" fill="white"/>
</clipPath>
</defs>
</svg>
